<svg xmlns="http://www.w3.org/2000/svg" viewBox="0 0 1600 900" width="1600" height="900" role="img">
  <defs>
    <linearGradient id="bg23" x1="0" y1="0" x2="1" y2="1">
      <stop offset="0%" stop-color="#081726"/>
      <stop offset="55%" stop-color="#123244"/>
      <stop offset="100%" stop-color="#155e75"/>
    </linearGradient>
    <radialGradient id="glow23" cx="0.72" cy="0.28" r="0.6">
      <stop offset="0%" stop-color="#22d3ee" stop-opacity="0.35"/>
      <stop offset="100%" stop-color="#22d3ee" stop-opacity="0"/>
    </radialGradient>
  </defs>
  <rect width="1600" height="900" fill="url(#bg23)"/>
  <rect width="1600" height="900" fill="url(#glow23)"/>
  <circle cx="-40" cy="212.6" r="7" fill="#67e8f9" opacity="0.24"/><line x1="-40" y1="220.6" x2="-40" y2="278.6" stroke="#a5f3fc" stroke-width="1.1" opacity="0.13"/><circle cx="-6" cy="218.7" r="7" fill="#67e8f9" opacity="0.24"/><line x1="-6" y1="226.7" x2="-6" y2="284.7" stroke="#a5f3fc" stroke-width="1.1" opacity="0.13"/><circle cx="28" cy="224.9" r="7" fill="#67e8f9" opacity="0.24"/><line x1="28" y1="232.9" x2="28" y2="290.9" stroke="#a5f3fc" stroke-width="1.1" opacity="0.13"/><circle cx="62" cy="230.9" r="7" fill="#67e8f9" opacity="0.24"/><line x1="62" y1="238.9" x2="62" y2="296.9" stroke="#a5f3fc" stroke-width="1.1" opacity="0.13"/><circle cx="96" cy="236.6" r="7" fill="#67e8f9" opacity="0.24"/><line x1="96" y1="244.6" x2="96" y2="302.6" stroke="#a5f3fc" stroke-width="1.1" opacity="0.13"/><circle cx="130" cy="241.9" r="7" fill="#67e8f9" opacity="0.24"/><line x1="130" y1="249.9" x2="130" y2="307.9" stroke="#a5f3fc" stroke-width="1.1" opacity="0.13"/><circle cx="164" cy="246.6" r="7" fill="#67e8f9" opacity="0.24"/><line x1="164" y1="254.6" x2="164" y2="312.6" stroke="#a5f3fc" stroke-width="1.1" opacity="0.13"/><circle cx="198" cy="250.7" r="7" fill="#67e8f9" opacity="0.24"/><line x1="198" y1="258.7" x2="198" y2="316.7" stroke="#a5f3fc" stroke-width="1.1" opacity="0.13"/><circle cx="232" cy="253.9" r="7" fill="#67e8f9" opacity="0.24"/><line x1="232" y1="261.9" x2="232" y2="319.9" stroke="#a5f3fc" stroke-width="1.1" opacity="0.13"/><circle cx="266" cy="256.3" r="7" fill="#67e8f9" opacity="0.24"/><line x1="266" y1="264.3" x2="266" y2="322.3" stroke="#a5f3fc" stroke-width="1.1" opacity="0.13"/><circle cx="300" cy="257.7" r="7" fill="#67e8f9" opacity="0.24"/><line x1="300" y1="265.7" x2="300" y2="323.7" stroke="#a5f3fc" stroke-width="1.1" opacity="0.13"/><circle cx="334" cy="258.2" r="7" fill="#67e8f9" opacity="0.24"/><line x1="334" y1="266.2" x2="334" y2="324.2" stroke="#a5f3fc" stroke-width="1.1" opacity="0.13"/><circle cx="368" cy="257.7" r="7" fill="#67e8f9" opacity="0.24"/><line x1="368" y1="265.7" x2="368" y2="323.7" stroke="#a5f3fc" stroke-width="1.1" opacity="0.13"/><circle cx="402" cy="256.2" r="7" fill="#67e8f9" opacity="0.24"/><line x1="402" y1="264.2" x2="402" y2="322.2" stroke="#a5f3fc" stroke-width="1.1" opacity="0.13"/><circle cx="436" cy="253.8" r="7" fill="#67e8f9" opacity="0.24"/><line x1="436" y1="261.8" x2="436" y2="319.8" stroke="#a5f3fc" stroke-width="1.1" opacity="0.13"/><circle cx="470" cy="250.5" r="7" fill="#67e8f9" opacity="0.24"/><line x1="470" y1="258.5" x2="470" y2="316.5" stroke="#a5f3fc" stroke-width="1.1" opacity="0.13"/><circle cx="504" cy="246.4" r="7" fill="#67e8f9" opacity="0.24"/><line x1="504" y1="254.4" x2="504" y2="312.4" stroke="#a5f3fc" stroke-width="1.1" opacity="0.13"/><circle cx="538" cy="241.7" r="7" fill="#67e8f9" opacity="0.24"/><line x1="538" y1="249.7" x2="538" y2="307.7" stroke="#a5f3fc" stroke-width="1.1" opacity="0.13"/><circle cx="572" cy="236.4" r="7" fill="#67e8f9" opacity="0.24"/><line x1="572" y1="244.4" x2="572" y2="302.4" stroke="#a5f3fc" stroke-width="1.1" opacity="0.13"/><circle cx="606" cy="230.6" r="7" fill="#67e8f9" opacity="0.24"/><line x1="606" y1="238.6" x2="606" y2="296.6" stroke="#a5f3fc" stroke-width="1.1" opacity="0.13"/><circle cx="640" cy="224.6" r="7" fill="#67e8f9" opacity="0.24"/><line x1="640" y1="232.6" x2="640" y2="290.6" stroke="#a5f3fc" stroke-width="1.1" opacity="0.13"/><circle cx="674" cy="218.5" r="7" fill="#67e8f9" opacity="0.24"/><line x1="674" y1="226.5" x2="674" y2="284.5" stroke="#a5f3fc" stroke-width="1.1" opacity="0.13"/><circle cx="708" cy="212.4" r="7" fill="#67e8f9" opacity="0.24"/><line x1="708" y1="220.4" x2="708" y2="278.4" stroke="#a5f3fc" stroke-width="1.1" opacity="0.13"/><circle cx="742" cy="206.5" r="7" fill="#67e8f9" opacity="0.24"/><line x1="742" y1="214.5" x2="742" y2="272.5" stroke="#a5f3fc" stroke-width="1.1" opacity="0.13"/><circle cx="776" cy="200.9" r="7" fill="#67e8f9" opacity="0.24"/><line x1="776" y1="208.9" x2="776" y2="266.9" stroke="#a5f3fc" stroke-width="1.1" opacity="0.13"/><circle cx="810" cy="195.8" r="7" fill="#67e8f9" opacity="0.24"/><line x1="810" y1="203.8" x2="810" y2="261.8" stroke="#a5f3fc" stroke-width="1.1" opacity="0.13"/><circle cx="844" cy="191.3" r="7" fill="#67e8f9" opacity="0.24"/><line x1="844" y1="199.3" x2="844" y2="257.3" stroke="#a5f3fc" stroke-width="1.1" opacity="0.13"/><circle cx="878" cy="187.6" r="7" fill="#67e8f9" opacity="0.24"/><line x1="878" y1="195.6" x2="878" y2="253.6" stroke="#a5f3fc" stroke-width="1.1" opacity="0.13"/><circle cx="912" cy="184.7" r="7" fill="#67e8f9" opacity="0.24"/><line x1="912" y1="192.7" x2="912" y2="250.7" stroke="#a5f3fc" stroke-width="1.1" opacity="0.13"/><circle cx="946" cy="182.6" r="7" fill="#67e8f9" opacity="0.24"/><line x1="946" y1="190.6" x2="946" y2="248.6" stroke="#a5f3fc" stroke-width="1.1" opacity="0.13"/><circle cx="980" cy="181.6" r="7" fill="#67e8f9" opacity="0.24"/><line x1="980" y1="189.6" x2="980" y2="247.6" stroke="#a5f3fc" stroke-width="1.1" opacity="0.13"/><circle cx="1014" cy="181.5" r="7" fill="#67e8f9" opacity="0.24"/><line x1="1014" y1="189.5" x2="1014" y2="247.5" stroke="#a5f3fc" stroke-width="1.1" opacity="0.13"/><circle cx="1048" cy="182.4" r="7" fill="#67e8f9" opacity="0.24"/><line x1="1048" y1="190.4" x2="1048" y2="248.4" stroke="#a5f3fc" stroke-width="1.1" opacity="0.13"/><circle cx="1082" cy="184.2" r="7" fill="#67e8f9" opacity="0.24"/><line x1="1082" y1="192.2" x2="1082" y2="250.2" stroke="#a5f3fc" stroke-width="1.1" opacity="0.13"/><circle cx="1116" cy="187.0" r="7" fill="#67e8f9" opacity="0.24"/><line x1="1116" y1="195.0" x2="1116" y2="253.0" stroke="#a5f3fc" stroke-width="1.1" opacity="0.13"/><circle cx="1150" cy="190.6" r="7" fill="#67e8f9" opacity="0.24"/><line x1="1150" y1="198.6" x2="1150" y2="256.6" stroke="#a5f3fc" stroke-width="1.1" opacity="0.13"/><circle cx="1184" cy="195.0" r="7" fill="#67e8f9" opacity="0.24"/><line x1="1184" y1="203.0" x2="1184" y2="261.0" stroke="#a5f3fc" stroke-width="1.1" opacity="0.13"/><circle cx="1218" cy="199.9" r="7" fill="#67e8f9" opacity="0.24"/><line x1="1218" y1="207.9" x2="1218" y2="265.9" stroke="#a5f3fc" stroke-width="1.1" opacity="0.13"/><circle cx="1252" cy="205.4" r="7" fill="#67e8f9" opacity="0.24"/><line x1="1252" y1="213.4" x2="1252" y2="271.4" stroke="#a5f3fc" stroke-width="1.1" opacity="0.13"/><circle cx="1286" cy="211.3" r="7" fill="#67e8f9" opacity="0.24"/><line x1="1286" y1="219.3" x2="1286" y2="277.3" stroke="#a5f3fc" stroke-width="1.1" opacity="0.13"/><circle cx="1320" cy="217.4" r="7" fill="#67e8f9" opacity="0.24"/><line x1="1320" y1="225.4" x2="1320" y2="283.4" stroke="#a5f3fc" stroke-width="1.1" opacity="0.13"/><circle cx="1354" cy="223.5" r="7" fill="#67e8f9" opacity="0.24"/><line x1="1354" y1="231.5" x2="1354" y2="289.5" stroke="#a5f3fc" stroke-width="1.1" opacity="0.13"/><circle cx="1388" cy="229.6" r="7" fill="#67e8f9" opacity="0.24"/><line x1="1388" y1="237.6" x2="1388" y2="295.6" stroke="#a5f3fc" stroke-width="1.1" opacity="0.13"/><circle cx="1422" cy="235.4" r="7" fill="#67e8f9" opacity="0.24"/><line x1="1422" y1="243.4" x2="1422" y2="301.4" stroke="#a5f3fc" stroke-width="1.1" opacity="0.13"/><circle cx="1456" cy="240.8" r="7" fill="#67e8f9" opacity="0.24"/><line x1="1456" y1="248.8" x2="1456" y2="306.8" stroke="#a5f3fc" stroke-width="1.1" opacity="0.13"/><circle cx="1490" cy="245.6" r="7" fill="#67e8f9" opacity="0.24"/><line x1="1490" y1="253.6" x2="1490" y2="311.6" stroke="#a5f3fc" stroke-width="1.1" opacity="0.13"/><circle cx="1524" cy="249.8" r="7" fill="#67e8f9" opacity="0.24"/><line x1="1524" y1="257.8" x2="1524" y2="315.8" stroke="#a5f3fc" stroke-width="1.1" opacity="0.13"/><circle cx="1558" cy="253.3" r="7" fill="#67e8f9" opacity="0.24"/><line x1="1558" y1="261.3" x2="1558" y2="319.3" stroke="#a5f3fc" stroke-width="1.1" opacity="0.13"/><circle cx="1592" cy="255.8" r="7" fill="#67e8f9" opacity="0.24"/><line x1="1592" y1="263.8" x2="1592" y2="321.8" stroke="#a5f3fc" stroke-width="1.1" opacity="0.13"/><circle cx="1626" cy="257.5" r="7" fill="#67e8f9" opacity="0.24"/><line x1="1626" y1="265.5" x2="1626" y2="323.5" stroke="#a5f3fc" stroke-width="1.1" opacity="0.13"/><circle cx="-40" cy="286.6" r="7" fill="#67e8f9" opacity="0.18"/><circle cx="-6" cy="292.7" r="7" fill="#67e8f9" opacity="0.18"/><circle cx="28" cy="298.9" r="7" fill="#67e8f9" opacity="0.18"/><circle cx="62" cy="304.9" r="7" fill="#67e8f9" opacity="0.18"/><circle cx="96" cy="310.6" r="7" fill="#67e8f9" opacity="0.18"/><circle cx="130" cy="315.9" r="7" fill="#67e8f9" opacity="0.18"/><circle cx="164" cy="320.6" r="7" fill="#67e8f9" opacity="0.18"/><circle cx="198" cy="324.7" r="7" fill="#67e8f9" opacity="0.18"/><circle cx="232" cy="327.9" r="7" fill="#67e8f9" opacity="0.18"/><circle cx="266" cy="330.3" r="7" fill="#67e8f9" opacity="0.18"/><circle cx="300" cy="331.7" r="7" fill="#67e8f9" opacity="0.18"/><circle cx="334" cy="332.2" r="7" fill="#67e8f9" opacity="0.18"/><circle cx="368" cy="331.7" r="7" fill="#67e8f9" opacity="0.18"/><circle cx="402" cy="330.2" r="7" fill="#67e8f9" opacity="0.18"/><circle cx="436" cy="327.8" r="7" fill="#67e8f9" opacity="0.18"/><circle cx="470" cy="324.5" r="7" fill="#67e8f9" opacity="0.18"/><circle cx="504" cy="320.4" r="7" fill="#67e8f9" opacity="0.18"/><circle cx="538" cy="315.7" r="7" fill="#67e8f9" opacity="0.18"/><circle cx="572" cy="310.4" r="7" fill="#67e8f9" opacity="0.18"/><circle cx="606" cy="304.6" r="7" fill="#67e8f9" opacity="0.18"/><circle cx="640" cy="298.6" r="7" fill="#67e8f9" opacity="0.18"/><circle cx="674" cy="292.5" r="7" fill="#67e8f9" opacity="0.18"/><circle cx="708" cy="286.4" r="7" fill="#67e8f9" opacity="0.18"/><circle cx="742" cy="280.5" r="7" fill="#67e8f9" opacity="0.18"/><circle cx="776" cy="274.9" r="7" fill="#67e8f9" opacity="0.18"/><circle cx="810" cy="269.8" r="7" fill="#67e8f9" opacity="0.18"/><circle cx="844" cy="265.3" r="7" fill="#67e8f9" opacity="0.18"/><circle cx="878" cy="261.6" r="7" fill="#67e8f9" opacity="0.18"/><circle cx="912" cy="258.7" r="7" fill="#67e8f9" opacity="0.18"/><circle cx="946" cy="256.6" r="7" fill="#67e8f9" opacity="0.18"/><circle cx="980" cy="255.6" r="7" fill="#67e8f9" opacity="0.18"/><circle cx="1014" cy="255.5" r="7" fill="#67e8f9" opacity="0.18"/><circle cx="1048" cy="256.4" r="7" fill="#67e8f9" opacity="0.18"/><circle cx="1082" cy="258.2" r="7" fill="#67e8f9" opacity="0.18"/><circle cx="1116" cy="261.0" r="7" fill="#67e8f9" opacity="0.18"/><circle cx="1150" cy="264.6" r="7" fill="#67e8f9" opacity="0.18"/><circle cx="1184" cy="269.0" r="7" fill="#67e8f9" opacity="0.18"/><circle cx="1218" cy="273.9" r="7" fill="#67e8f9" opacity="0.18"/><circle cx="1252" cy="279.4" r="7" fill="#67e8f9" opacity="0.18"/><circle cx="1286" cy="285.3" r="7" fill="#67e8f9" opacity="0.18"/><circle cx="1320" cy="291.4" r="7" fill="#67e8f9" opacity="0.18"/><circle cx="1354" cy="297.5" r="7" fill="#67e8f9" opacity="0.18"/><circle cx="1388" cy="303.6" r="7" fill="#67e8f9" opacity="0.18"/><circle cx="1422" cy="309.4" r="7" fill="#67e8f9" opacity="0.18"/><circle cx="1456" cy="314.8" r="7" fill="#67e8f9" opacity="0.18"/><circle cx="1490" cy="319.6" r="7" fill="#67e8f9" opacity="0.18"/><circle cx="1524" cy="323.8" r="7" fill="#67e8f9" opacity="0.18"/><circle cx="1558" cy="327.3" r="7" fill="#67e8f9" opacity="0.18"/><circle cx="1592" cy="329.8" r="7" fill="#67e8f9" opacity="0.18"/><circle cx="1626" cy="331.5" r="7" fill="#67e8f9" opacity="0.18"/><circle cx="-40" cy="524.4" r="7" fill="#67e8f9" opacity="0.24"/><line x1="-40" y1="532.4" x2="-40" y2="590.4" stroke="#a5f3fc" stroke-width="1.1" opacity="0.13"/><circle cx="-6" cy="528.8" r="7" fill="#67e8f9" opacity="0.24"/><line x1="-6" y1="536.8" x2="-6" y2="594.8" stroke="#a5f3fc" stroke-width="1.1" opacity="0.13"/><circle cx="28" cy="532.2" r="7" fill="#67e8f9" opacity="0.24"/><line x1="28" y1="540.2" x2="28" y2="598.2" stroke="#a5f3fc" stroke-width="1.1" opacity="0.13"/><circle cx="62" cy="534.7" r="7" fill="#67e8f9" opacity="0.24"/><line x1="62" y1="542.7" x2="62" y2="600.7" stroke="#a5f3fc" stroke-width="1.1" opacity="0.13"/><circle cx="96" cy="536.1" r="7" fill="#67e8f9" opacity="0.24"/><line x1="96" y1="544.1" x2="96" y2="602.1" stroke="#a5f3fc" stroke-width="1.1" opacity="0.13"/><circle cx="130" cy="536.3" r="7" fill="#67e8f9" opacity="0.24"/><line x1="130" y1="544.3" x2="130" y2="602.3" stroke="#a5f3fc" stroke-width="1.1" opacity="0.13"/><circle cx="164" cy="535.5" r="7" fill="#67e8f9" opacity="0.24"/><line x1="164" y1="543.5" x2="164" y2="601.5" stroke="#a5f3fc" stroke-width="1.1" opacity="0.13"/><circle cx="198" cy="533.5" r="7" fill="#67e8f9" opacity="0.24"/><line x1="198" y1="541.5" x2="198" y2="599.5" stroke="#a5f3fc" stroke-width="1.1" opacity="0.13"/><circle cx="232" cy="530.5" r="7" fill="#67e8f9" opacity="0.24"/><line x1="232" y1="538.5" x2="232" y2="596.5" stroke="#a5f3fc" stroke-width="1.1" opacity="0.13"/><circle cx="266" cy="526.6" r="7" fill="#67e8f9" opacity="0.24"/><line x1="266" y1="534.6" x2="266" y2="592.6" stroke="#a5f3fc" stroke-width="1.1" opacity="0.13"/><circle cx="300" cy="521.8" r="7" fill="#67e8f9" opacity="0.24"/><line x1="300" y1="529.8" x2="300" y2="587.8" stroke="#a5f3fc" stroke-width="1.1" opacity="0.13"/><circle cx="334" cy="516.2" r="7" fill="#67e8f9" opacity="0.24"/><line x1="334" y1="524.2" x2="334" y2="582.2" stroke="#a5f3fc" stroke-width="1.1" opacity="0.13"/><circle cx="368" cy="510.0" r="7" fill="#67e8f9" opacity="0.24"/><line x1="368" y1="518.0" x2="368" y2="576.0" stroke="#a5f3fc" stroke-width="1.1" opacity="0.13"/><circle cx="402" cy="503.4" r="7" fill="#67e8f9" opacity="0.24"/><line x1="402" y1="511.4" x2="402" y2="569.4" stroke="#a5f3fc" stroke-width="1.1" opacity="0.13"/><circle cx="436" cy="496.5" r="7" fill="#67e8f9" opacity="0.24"/><line x1="436" y1="504.5" x2="436" y2="562.5" stroke="#a5f3fc" stroke-width="1.1" opacity="0.13"/><circle cx="470" cy="489.5" r="7" fill="#67e8f9" opacity="0.24"/><line x1="470" y1="497.5" x2="470" y2="555.5" stroke="#a5f3fc" stroke-width="1.1" opacity="0.13"/><circle cx="504" cy="482.6" r="7" fill="#67e8f9" opacity="0.24"/><line x1="504" y1="490.6" x2="504" y2="548.6" stroke="#a5f3fc" stroke-width="1.1" opacity="0.13"/><circle cx="538" cy="476.0" r="7" fill="#67e8f9" opacity="0.24"/><line x1="538" y1="484.0" x2="538" y2="542.0" stroke="#a5f3fc" stroke-width="1.1" opacity="0.13"/><circle cx="572" cy="469.8" r="7" fill="#67e8f9" opacity="0.24"/><line x1="572" y1="477.8" x2="572" y2="535.8" stroke="#a5f3fc" stroke-width="1.1" opacity="0.13"/><circle cx="606" cy="464.1" r="7" fill="#67e8f9" opacity="0.24"/><line x1="606" y1="472.1" x2="606" y2="530.1" stroke="#a5f3fc" stroke-width="1.1" opacity="0.13"/><circle cx="640" cy="459.2" r="7" fill="#67e8f9" opacity="0.24"/><line x1="640" y1="467.2" x2="640" y2="525.2" stroke="#a5f3fc" stroke-width="1.1" opacity="0.13"/><circle cx="674" cy="455.2" r="7" fill="#67e8f9" opacity="0.24"/><line x1="674" y1="463.2" x2="674" y2="521.2" stroke="#a5f3fc" stroke-width="1.1" opacity="0.13"/><circle cx="708" cy="452.1" r="7" fill="#67e8f9" opacity="0.24"/><line x1="708" y1="460.1" x2="708" y2="518.1" stroke="#a5f3fc" stroke-width="1.1" opacity="0.13"/><circle cx="742" cy="450.1" r="7" fill="#67e8f9" opacity="0.24"/><line x1="742" y1="458.1" x2="742" y2="516.1" stroke="#a5f3fc" stroke-width="1.1" opacity="0.13"/><circle cx="776" cy="449.1" r="7" fill="#67e8f9" opacity="0.24"/><line x1="776" y1="457.1" x2="776" y2="515.1" stroke="#a5f3fc" stroke-width="1.1" opacity="0.13"/><circle cx="810" cy="449.3" r="7" fill="#67e8f9" opacity="0.24"/><line x1="810" y1="457.3" x2="810" y2="515.3" stroke="#a5f3fc" stroke-width="1.1" opacity="0.13"/><circle cx="844" cy="450.6" r="7" fill="#67e8f9" opacity="0.24"/><line x1="844" y1="458.6" x2="844" y2="516.6" stroke="#a5f3fc" stroke-width="1.1" opacity="0.13"/><circle cx="878" cy="452.9" r="7" fill="#67e8f9" opacity="0.24"/><line x1="878" y1="460.9" x2="878" y2="518.9" stroke="#a5f3fc" stroke-width="1.1" opacity="0.13"/><circle cx="912" cy="456.3" r="7" fill="#67e8f9" opacity="0.24"/><line x1="912" y1="464.3" x2="912" y2="522.3" stroke="#a5f3fc" stroke-width="1.1" opacity="0.13"/><circle cx="946" cy="460.6" r="7" fill="#67e8f9" opacity="0.24"/><line x1="946" y1="468.6" x2="946" y2="526.6" stroke="#a5f3fc" stroke-width="1.1" opacity="0.13"/><circle cx="980" cy="465.8" r="7" fill="#67e8f9" opacity="0.24"/><line x1="980" y1="473.8" x2="980" y2="531.8" stroke="#a5f3fc" stroke-width="1.1" opacity="0.13"/><circle cx="1014" cy="471.6" r="7" fill="#67e8f9" opacity="0.24"/><line x1="1014" y1="479.6" x2="1014" y2="537.6" stroke="#a5f3fc" stroke-width="1.1" opacity="0.13"/><circle cx="1048" cy="478.0" r="7" fill="#67e8f9" opacity="0.24"/><line x1="1048" y1="486.0" x2="1048" y2="544.0" stroke="#a5f3fc" stroke-width="1.1" opacity="0.13"/><circle cx="1082" cy="484.7" r="7" fill="#67e8f9" opacity="0.24"/><line x1="1082" y1="492.7" x2="1082" y2="550.7" stroke="#a5f3fc" stroke-width="1.1" opacity="0.13"/><circle cx="1116" cy="491.7" r="7" fill="#67e8f9" opacity="0.24"/><line x1="1116" y1="499.7" x2="1116" y2="557.7" stroke="#a5f3fc" stroke-width="1.1" opacity="0.13"/><circle cx="1150" cy="498.6" r="7" fill="#67e8f9" opacity="0.24"/><line x1="1150" y1="506.6" x2="1150" y2="564.6" stroke="#a5f3fc" stroke-width="1.1" opacity="0.13"/><circle cx="1184" cy="505.5" r="7" fill="#67e8f9" opacity="0.24"/><line x1="1184" y1="513.5" x2="1184" y2="571.5" stroke="#a5f3fc" stroke-width="1.1" opacity="0.13"/><circle cx="1218" cy="512.0" r="7" fill="#67e8f9" opacity="0.24"/><line x1="1218" y1="520.0" x2="1218" y2="578.0" stroke="#a5f3fc" stroke-width="1.1" opacity="0.13"/><circle cx="1252" cy="518.0" r="7" fill="#67e8f9" opacity="0.24"/><line x1="1252" y1="526.0" x2="1252" y2="584.0" stroke="#a5f3fc" stroke-width="1.1" opacity="0.13"/><circle cx="1286" cy="523.3" r="7" fill="#67e8f9" opacity="0.24"/><line x1="1286" y1="531.3" x2="1286" y2="589.3" stroke="#a5f3fc" stroke-width="1.1" opacity="0.13"/><circle cx="1320" cy="527.9" r="7" fill="#67e8f9" opacity="0.24"/><line x1="1320" y1="535.9" x2="1320" y2="593.9" stroke="#a5f3fc" stroke-width="1.1" opacity="0.13"/><circle cx="1354" cy="531.6" r="7" fill="#67e8f9" opacity="0.24"/><line x1="1354" y1="539.6" x2="1354" y2="597.6" stroke="#a5f3fc" stroke-width="1.1" opacity="0.13"/><circle cx="1388" cy="534.2" r="7" fill="#67e8f9" opacity="0.24"/><line x1="1388" y1="542.2" x2="1388" y2="600.2" stroke="#a5f3fc" stroke-width="1.1" opacity="0.13"/><circle cx="1422" cy="535.9" r="7" fill="#67e8f9" opacity="0.24"/><line x1="1422" y1="543.9" x2="1422" y2="601.9" stroke="#a5f3fc" stroke-width="1.1" opacity="0.13"/><circle cx="1456" cy="536.4" r="7" fill="#67e8f9" opacity="0.24"/><line x1="1456" y1="544.4" x2="1456" y2="602.4" stroke="#a5f3fc" stroke-width="1.1" opacity="0.13"/><circle cx="1490" cy="535.8" r="7" fill="#67e8f9" opacity="0.24"/><line x1="1490" y1="543.8" x2="1490" y2="601.8" stroke="#a5f3fc" stroke-width="1.1" opacity="0.13"/><circle cx="1524" cy="534.0" r="7" fill="#67e8f9" opacity="0.24"/><line x1="1524" y1="542.0" x2="1524" y2="600.0" stroke="#a5f3fc" stroke-width="1.1" opacity="0.13"/><circle cx="1558" cy="531.3" r="7" fill="#67e8f9" opacity="0.24"/><line x1="1558" y1="539.3" x2="1558" y2="597.3" stroke="#a5f3fc" stroke-width="1.1" opacity="0.13"/><circle cx="1592" cy="527.5" r="7" fill="#67e8f9" opacity="0.24"/><line x1="1592" y1="535.5" x2="1592" y2="593.5" stroke="#a5f3fc" stroke-width="1.1" opacity="0.13"/><circle cx="1626" cy="522.9" r="7" fill="#67e8f9" opacity="0.24"/><line x1="1626" y1="530.9" x2="1626" y2="588.9" stroke="#a5f3fc" stroke-width="1.1" opacity="0.13"/><circle cx="-40" cy="598.4" r="7" fill="#67e8f9" opacity="0.18"/><circle cx="-6" cy="602.8" r="7" fill="#67e8f9" opacity="0.18"/><circle cx="28" cy="606.2" r="7" fill="#67e8f9" opacity="0.18"/><circle cx="62" cy="608.7" r="7" fill="#67e8f9" opacity="0.18"/><circle cx="96" cy="610.1" r="7" fill="#67e8f9" opacity="0.18"/><circle cx="130" cy="610.3" r="7" fill="#67e8f9" opacity="0.18"/><circle cx="164" cy="609.5" r="7" fill="#67e8f9" opacity="0.18"/><circle cx="198" cy="607.5" r="7" fill="#67e8f9" opacity="0.18"/><circle cx="232" cy="604.5" r="7" fill="#67e8f9" opacity="0.18"/><circle cx="266" cy="600.6" r="7" fill="#67e8f9" opacity="0.18"/><circle cx="300" cy="595.8" r="7" fill="#67e8f9" opacity="0.18"/><circle cx="334" cy="590.2" r="7" fill="#67e8f9" opacity="0.18"/><circle cx="368" cy="584.0" r="7" fill="#67e8f9" opacity="0.18"/><circle cx="402" cy="577.4" r="7" fill="#67e8f9" opacity="0.18"/><circle cx="436" cy="570.5" r="7" fill="#67e8f9" opacity="0.18"/><circle cx="470" cy="563.5" r="7" fill="#67e8f9" opacity="0.18"/><circle cx="504" cy="556.6" r="7" fill="#67e8f9" opacity="0.18"/><circle cx="538" cy="550.0" r="7" fill="#67e8f9" opacity="0.18"/><circle cx="572" cy="543.8" r="7" fill="#67e8f9" opacity="0.18"/><circle cx="606" cy="538.1" r="7" fill="#67e8f9" opacity="0.18"/><circle cx="640" cy="533.2" r="7" fill="#67e8f9" opacity="0.18"/><circle cx="674" cy="529.2" r="7" fill="#67e8f9" opacity="0.18"/><circle cx="708" cy="526.1" r="7" fill="#67e8f9" opacity="0.18"/><circle cx="742" cy="524.1" r="7" fill="#67e8f9" opacity="0.18"/><circle cx="776" cy="523.1" r="7" fill="#67e8f9" opacity="0.18"/><circle cx="810" cy="523.3" r="7" fill="#67e8f9" opacity="0.18"/><circle cx="844" cy="524.6" r="7" fill="#67e8f9" opacity="0.18"/><circle cx="878" cy="526.9" r="7" fill="#67e8f9" opacity="0.18"/><circle cx="912" cy="530.3" r="7" fill="#67e8f9" opacity="0.18"/><circle cx="946" cy="534.6" r="7" fill="#67e8f9" opacity="0.18"/><circle cx="980" cy="539.8" r="7" fill="#67e8f9" opacity="0.18"/><circle cx="1014" cy="545.6" r="7" fill="#67e8f9" opacity="0.18"/><circle cx="1048" cy="552.0" r="7" fill="#67e8f9" opacity="0.18"/><circle cx="1082" cy="558.7" r="7" fill="#67e8f9" opacity="0.18"/><circle cx="1116" cy="565.7" r="7" fill="#67e8f9" opacity="0.18"/><circle cx="1150" cy="572.6" r="7" fill="#67e8f9" opacity="0.18"/><circle cx="1184" cy="579.5" r="7" fill="#67e8f9" opacity="0.18"/><circle cx="1218" cy="586.0" r="7" fill="#67e8f9" opacity="0.18"/><circle cx="1252" cy="592.0" r="7" fill="#67e8f9" opacity="0.18"/><circle cx="1286" cy="597.3" r="7" fill="#67e8f9" opacity="0.18"/><circle cx="1320" cy="601.9" r="7" fill="#67e8f9" opacity="0.18"/><circle cx="1354" cy="605.6" r="7" fill="#67e8f9" opacity="0.18"/><circle cx="1388" cy="608.2" r="7" fill="#67e8f9" opacity="0.18"/><circle cx="1422" cy="609.9" r="7" fill="#67e8f9" opacity="0.18"/><circle cx="1456" cy="610.4" r="7" fill="#67e8f9" opacity="0.18"/><circle cx="1490" cy="609.8" r="7" fill="#67e8f9" opacity="0.18"/><circle cx="1524" cy="608.0" r="7" fill="#67e8f9" opacity="0.18"/><circle cx="1558" cy="605.3" r="7" fill="#67e8f9" opacity="0.18"/><circle cx="1592" cy="601.5" r="7" fill="#67e8f9" opacity="0.18"/><circle cx="1626" cy="596.9" r="7" fill="#67e8f9" opacity="0.18"/><circle cx="-40" cy="810.8" r="7" fill="#67e8f9" opacity="0.24"/><line x1="-40" y1="818.8" x2="-40" y2="876.8" stroke="#a5f3fc" stroke-width="1.1" opacity="0.13"/><circle cx="-6" cy="808.1" r="7" fill="#67e8f9" opacity="0.24"/><line x1="-6" y1="816.1" x2="-6" y2="874.1" stroke="#a5f3fc" stroke-width="1.1" opacity="0.13"/><circle cx="28" cy="804.1" r="7" fill="#67e8f9" opacity="0.24"/><line x1="28" y1="812.1" x2="28" y2="870.1" stroke="#a5f3fc" stroke-width="1.1" opacity="0.13"/><circle cx="62" cy="798.9" r="7" fill="#67e8f9" opacity="0.24"/><line x1="62" y1="806.9" x2="62" y2="864.9" stroke="#a5f3fc" stroke-width="1.1" opacity="0.13"/><circle cx="96" cy="792.8" r="7" fill="#67e8f9" opacity="0.24"/><line x1="96" y1="800.8" x2="96" y2="858.8" stroke="#a5f3fc" stroke-width="1.1" opacity="0.13"/><circle cx="130" cy="785.7" r="7" fill="#67e8f9" opacity="0.24"/><line x1="130" y1="793.7" x2="130" y2="851.7" stroke="#a5f3fc" stroke-width="1.1" opacity="0.13"/><circle cx="164" cy="777.9" r="7" fill="#67e8f9" opacity="0.24"/><line x1="164" y1="785.9" x2="164" y2="843.9" stroke="#a5f3fc" stroke-width="1.1" opacity="0.13"/><circle cx="198" cy="769.7" r="7" fill="#67e8f9" opacity="0.24"/><line x1="198" y1="777.7" x2="198" y2="835.7" stroke="#a5f3fc" stroke-width="1.1" opacity="0.13"/><circle cx="232" cy="761.1" r="7" fill="#67e8f9" opacity="0.24"/><line x1="232" y1="769.1" x2="232" y2="827.1" stroke="#a5f3fc" stroke-width="1.1" opacity="0.13"/><circle cx="266" cy="752.5" r="7" fill="#67e8f9" opacity="0.24"/><line x1="266" y1="760.5" x2="266" y2="818.5" stroke="#a5f3fc" stroke-width="1.1" opacity="0.13"/><circle cx="300" cy="744.0" r="7" fill="#67e8f9" opacity="0.24"/><line x1="300" y1="752.0" x2="300" y2="810.0" stroke="#a5f3fc" stroke-width="1.1" opacity="0.13"/><circle cx="334" cy="735.9" r="7" fill="#67e8f9" opacity="0.24"/><line x1="334" y1="743.9" x2="334" y2="801.9" stroke="#a5f3fc" stroke-width="1.1" opacity="0.13"/><circle cx="368" cy="728.4" r="7" fill="#67e8f9" opacity="0.24"/><line x1="368" y1="736.4" x2="368" y2="794.4" stroke="#a5f3fc" stroke-width="1.1" opacity="0.13"/><circle cx="402" cy="721.7" r="7" fill="#67e8f9" opacity="0.24"/><line x1="402" y1="729.7" x2="402" y2="787.7" stroke="#a5f3fc" stroke-width="1.1" opacity="0.13"/><circle cx="436" cy="715.9" r="7" fill="#67e8f9" opacity="0.24"/><line x1="436" y1="723.9" x2="436" y2="781.9" stroke="#a5f3fc" stroke-width="1.1" opacity="0.13"/><circle cx="470" cy="711.2" r="7" fill="#67e8f9" opacity="0.24"/><line x1="470" y1="719.2" x2="470" y2="777.2" stroke="#a5f3fc" stroke-width="1.1" opacity="0.13"/><circle cx="504" cy="707.7" r="7" fill="#67e8f9" opacity="0.24"/><line x1="504" y1="715.7" x2="504" y2="773.7" stroke="#a5f3fc" stroke-width="1.1" opacity="0.13"/><circle cx="538" cy="705.5" r="7" fill="#67e8f9" opacity="0.24"/><line x1="538" y1="713.5" x2="538" y2="771.5" stroke="#a5f3fc" stroke-width="1.1" opacity="0.13"/><circle cx="572" cy="704.7" r="7" fill="#67e8f9" opacity="0.24"/><line x1="572" y1="712.7" x2="572" y2="770.7" stroke="#a5f3fc" stroke-width="1.1" opacity="0.13"/><circle cx="606" cy="705.2" r="7" fill="#67e8f9" opacity="0.24"/><line x1="606" y1="713.2" x2="606" y2="771.2" stroke="#a5f3fc" stroke-width="1.1" opacity="0.13"/><circle cx="640" cy="707.1" r="7" fill="#67e8f9" opacity="0.24"/><line x1="640" y1="715.1" x2="640" y2="773.1" stroke="#a5f3fc" stroke-width="1.1" opacity="0.13"/><circle cx="674" cy="710.3" r="7" fill="#67e8f9" opacity="0.24"/><line x1="674" y1="718.3" x2="674" y2="776.3" stroke="#a5f3fc" stroke-width="1.1" opacity="0.13"/><circle cx="708" cy="714.8" r="7" fill="#67e8f9" opacity="0.24"/><line x1="708" y1="722.8" x2="708" y2="780.8" stroke="#a5f3fc" stroke-width="1.1" opacity="0.13"/><circle cx="742" cy="720.4" r="7" fill="#67e8f9" opacity="0.24"/><line x1="742" y1="728.4" x2="742" y2="786.4" stroke="#a5f3fc" stroke-width="1.1" opacity="0.13"/><circle cx="776" cy="726.9" r="7" fill="#67e8f9" opacity="0.24"/><line x1="776" y1="734.9" x2="776" y2="792.9" stroke="#a5f3fc" stroke-width="1.1" opacity="0.13"/><circle cx="810" cy="734.3" r="7" fill="#67e8f9" opacity="0.24"/><line x1="810" y1="742.3" x2="810" y2="800.3" stroke="#a5f3fc" stroke-width="1.1" opacity="0.13"/><circle cx="844" cy="742.3" r="7" fill="#67e8f9" opacity="0.24"/><line x1="844" y1="750.3" x2="844" y2="808.3" stroke="#a5f3fc" stroke-width="1.1" opacity="0.13"/><circle cx="878" cy="750.7" r="7" fill="#67e8f9" opacity="0.24"/><line x1="878" y1="758.7" x2="878" y2="816.7" stroke="#a5f3fc" stroke-width="1.1" opacity="0.13"/><circle cx="912" cy="759.3" r="7" fill="#67e8f9" opacity="0.24"/><line x1="912" y1="767.3" x2="912" y2="825.3" stroke="#a5f3fc" stroke-width="1.1" opacity="0.13"/><circle cx="946" cy="767.9" r="7" fill="#67e8f9" opacity="0.24"/><line x1="946" y1="775.9" x2="946" y2="833.9" stroke="#a5f3fc" stroke-width="1.1" opacity="0.13"/><circle cx="980" cy="776.2" r="7" fill="#67e8f9" opacity="0.24"/><line x1="980" y1="784.2" x2="980" y2="842.2" stroke="#a5f3fc" stroke-width="1.1" opacity="0.13"/><circle cx="1014" cy="784.1" r="7" fill="#67e8f9" opacity="0.24"/><line x1="1014" y1="792.1" x2="1014" y2="850.1" stroke="#a5f3fc" stroke-width="1.1" opacity="0.13"/><circle cx="1048" cy="791.3" r="7" fill="#67e8f9" opacity="0.24"/><line x1="1048" y1="799.3" x2="1048" y2="857.3" stroke="#a5f3fc" stroke-width="1.1" opacity="0.13"/><circle cx="1082" cy="797.7" r="7" fill="#67e8f9" opacity="0.24"/><line x1="1082" y1="805.7" x2="1082" y2="863.7" stroke="#a5f3fc" stroke-width="1.1" opacity="0.13"/><circle cx="1116" cy="803.1" r="7" fill="#67e8f9" opacity="0.24"/><line x1="1116" y1="811.1" x2="1116" y2="869.1" stroke="#a5f3fc" stroke-width="1.1" opacity="0.13"/><circle cx="1150" cy="807.4" r="7" fill="#67e8f9" opacity="0.24"/><line x1="1150" y1="815.4" x2="1150" y2="873.4" stroke="#a5f3fc" stroke-width="1.1" opacity="0.13"/><circle cx="1184" cy="810.3" r="7" fill="#67e8f9" opacity="0.24"/><line x1="1184" y1="818.3" x2="1184" y2="876.3" stroke="#a5f3fc" stroke-width="1.1" opacity="0.13"/><circle cx="1218" cy="812.0" r="7" fill="#67e8f9" opacity="0.24"/><line x1="1218" y1="820.0" x2="1218" y2="878.0" stroke="#a5f3fc" stroke-width="1.1" opacity="0.13"/><circle cx="1252" cy="812.3" r="7" fill="#67e8f9" opacity="0.24"/><line x1="1252" y1="820.3" x2="1252" y2="878.3" stroke="#a5f3fc" stroke-width="1.1" opacity="0.13"/><circle cx="1286" cy="811.2" r="7" fill="#67e8f9" opacity="0.24"/><line x1="1286" y1="819.2" x2="1286" y2="877.2" stroke="#a5f3fc" stroke-width="1.1" opacity="0.13"/><circle cx="1320" cy="808.8" r="7" fill="#67e8f9" opacity="0.24"/><line x1="1320" y1="816.8" x2="1320" y2="874.8" stroke="#a5f3fc" stroke-width="1.1" opacity="0.13"/><circle cx="1354" cy="805.1" r="7" fill="#67e8f9" opacity="0.24"/><line x1="1354" y1="813.1" x2="1354" y2="871.1" stroke="#a5f3fc" stroke-width="1.1" opacity="0.13"/><circle cx="1388" cy="800.2" r="7" fill="#67e8f9" opacity="0.24"/><line x1="1388" y1="808.2" x2="1388" y2="866.2" stroke="#a5f3fc" stroke-width="1.1" opacity="0.13"/><circle cx="1422" cy="794.2" r="7" fill="#67e8f9" opacity="0.24"/><line x1="1422" y1="802.2" x2="1422" y2="860.2" stroke="#a5f3fc" stroke-width="1.1" opacity="0.13"/><circle cx="1456" cy="787.3" r="7" fill="#67e8f9" opacity="0.24"/><line x1="1456" y1="795.3" x2="1456" y2="853.3" stroke="#a5f3fc" stroke-width="1.1" opacity="0.13"/><circle cx="1490" cy="779.6" r="7" fill="#67e8f9" opacity="0.24"/><line x1="1490" y1="787.6" x2="1490" y2="845.6" stroke="#a5f3fc" stroke-width="1.1" opacity="0.13"/><circle cx="1524" cy="771.5" r="7" fill="#67e8f9" opacity="0.24"/><line x1="1524" y1="779.5" x2="1524" y2="837.5" stroke="#a5f3fc" stroke-width="1.1" opacity="0.13"/><circle cx="1558" cy="763.0" r="7" fill="#67e8f9" opacity="0.24"/><line x1="1558" y1="771.0" x2="1558" y2="829.0" stroke="#a5f3fc" stroke-width="1.1" opacity="0.13"/><circle cx="1592" cy="754.4" r="7" fill="#67e8f9" opacity="0.24"/><line x1="1592" y1="762.4" x2="1592" y2="820.4" stroke="#a5f3fc" stroke-width="1.1" opacity="0.13"/><circle cx="1626" cy="745.8" r="7" fill="#67e8f9" opacity="0.24"/><line x1="1626" y1="753.8" x2="1626" y2="811.8" stroke="#a5f3fc" stroke-width="1.1" opacity="0.13"/><circle cx="-40" cy="884.8" r="7" fill="#67e8f9" opacity="0.18"/><circle cx="-6" cy="882.1" r="7" fill="#67e8f9" opacity="0.18"/><circle cx="28" cy="878.1" r="7" fill="#67e8f9" opacity="0.18"/><circle cx="62" cy="872.9" r="7" fill="#67e8f9" opacity="0.18"/><circle cx="96" cy="866.8" r="7" fill="#67e8f9" opacity="0.18"/><circle cx="130" cy="859.7" r="7" fill="#67e8f9" opacity="0.18"/><circle cx="164" cy="851.9" r="7" fill="#67e8f9" opacity="0.18"/><circle cx="198" cy="843.7" r="7" fill="#67e8f9" opacity="0.18"/><circle cx="232" cy="835.1" r="7" fill="#67e8f9" opacity="0.18"/><circle cx="266" cy="826.5" r="7" fill="#67e8f9" opacity="0.18"/><circle cx="300" cy="818.0" r="7" fill="#67e8f9" opacity="0.18"/><circle cx="334" cy="809.9" r="7" fill="#67e8f9" opacity="0.18"/><circle cx="368" cy="802.4" r="7" fill="#67e8f9" opacity="0.18"/><circle cx="402" cy="795.7" r="7" fill="#67e8f9" opacity="0.18"/><circle cx="436" cy="789.9" r="7" fill="#67e8f9" opacity="0.18"/><circle cx="470" cy="785.2" r="7" fill="#67e8f9" opacity="0.18"/><circle cx="504" cy="781.7" r="7" fill="#67e8f9" opacity="0.18"/><circle cx="538" cy="779.5" r="7" fill="#67e8f9" opacity="0.18"/><circle cx="572" cy="778.7" r="7" fill="#67e8f9" opacity="0.18"/><circle cx="606" cy="779.2" r="7" fill="#67e8f9" opacity="0.18"/><circle cx="640" cy="781.1" r="7" fill="#67e8f9" opacity="0.18"/><circle cx="674" cy="784.3" r="7" fill="#67e8f9" opacity="0.18"/><circle cx="708" cy="788.8" r="7" fill="#67e8f9" opacity="0.18"/><circle cx="742" cy="794.4" r="7" fill="#67e8f9" opacity="0.18"/><circle cx="776" cy="800.9" r="7" fill="#67e8f9" opacity="0.18"/><circle cx="810" cy="808.3" r="7" fill="#67e8f9" opacity="0.18"/><circle cx="844" cy="816.3" r="7" fill="#67e8f9" opacity="0.18"/><circle cx="878" cy="824.7" r="7" fill="#67e8f9" opacity="0.18"/><circle cx="912" cy="833.3" r="7" fill="#67e8f9" opacity="0.18"/><circle cx="946" cy="841.9" r="7" fill="#67e8f9" opacity="0.18"/><circle cx="980" cy="850.2" r="7" fill="#67e8f9" opacity="0.18"/><circle cx="1014" cy="858.1" r="7" fill="#67e8f9" opacity="0.18"/><circle cx="1048" cy="865.3" r="7" fill="#67e8f9" opacity="0.18"/><circle cx="1082" cy="871.7" r="7" fill="#67e8f9" opacity="0.18"/><circle cx="1116" cy="877.1" r="7" fill="#67e8f9" opacity="0.18"/><circle cx="1150" cy="881.4" r="7" fill="#67e8f9" opacity="0.18"/><circle cx="1184" cy="884.3" r="7" fill="#67e8f9" opacity="0.18"/><circle cx="1218" cy="886.0" r="7" fill="#67e8f9" opacity="0.18"/><circle cx="1252" cy="886.3" r="7" fill="#67e8f9" opacity="0.18"/><circle cx="1286" cy="885.2" r="7" fill="#67e8f9" opacity="0.18"/><circle cx="1320" cy="882.8" r="7" fill="#67e8f9" opacity="0.18"/><circle cx="1354" cy="879.1" r="7" fill="#67e8f9" opacity="0.18"/><circle cx="1388" cy="874.2" r="7" fill="#67e8f9" opacity="0.18"/><circle cx="1422" cy="868.2" r="7" fill="#67e8f9" opacity="0.18"/><circle cx="1456" cy="861.3" r="7" fill="#67e8f9" opacity="0.18"/><circle cx="1490" cy="853.6" r="7" fill="#67e8f9" opacity="0.18"/><circle cx="1524" cy="845.5" r="7" fill="#67e8f9" opacity="0.18"/><circle cx="1558" cy="837.0" r="7" fill="#67e8f9" opacity="0.18"/><circle cx="1592" cy="828.4" r="7" fill="#67e8f9" opacity="0.18"/><circle cx="1626" cy="819.8" r="7" fill="#67e8f9" opacity="0.18"/>
</svg>
